<svg width="186" height="57" viewBox="0 0 186 57" fill="none" xmlns="http://www.w3.org/2000/svg">
<rect x="55.5" y="21.5" width="1" height="23" rx="0.5" transform="rotate(90 55.5 21.5)" fill="#0018ED" stroke="#0018ED"/>
<rect x="55.5" y="27.5" width="1" height="23" rx="0.5" transform="rotate(90 55.5 27.5)" fill="#0018ED" stroke="#0018ED"/>
<rect x="55.5" y="33.5" width="1" height="23" rx="0.5" transform="rotate(90 55.5 33.5)" fill="#0018ED" stroke="#0018ED"/>
<path d="M65.66 36V22.92H69.84C70.52 22.92 71.14 22.98 71.7 23.1C72.2733 23.2067 72.7667 23.3867 73.18 23.64C73.6067 23.88 73.9333 24.2067 74.16 24.62C74.4 25.0333 74.52 25.54 74.52 26.14C74.52 26.7667 74.36 27.3467 74.04 27.88C73.72 28.4133 73.2733 28.78 72.7 28.98V29.06C73.42 29.22 74.0133 29.56 74.48 30.08C74.96 30.5867 75.2 31.28 75.2 32.16C75.2 32.8133 75.0733 33.38 74.82 33.86C74.5667 34.34 74.2133 34.74 73.76 35.06C73.32 35.38 72.7933 35.62 72.18 35.78C71.5667 35.9267 70.9 36 70.18 36H65.66ZM67.98 28.32H69.64C70.56 28.32 71.22 28.1533 71.62 27.82C72.0333 27.4867 72.24 27.04 72.24 26.48C72.24 25.84 72.0267 25.3867 71.6 25.12C71.1733 24.8533 70.5333 24.72 69.68 24.72H67.98V28.32ZM67.98 34.2H69.94C70.9 34.2 71.64 34.0267 72.16 33.68C72.68 33.32 72.94 32.7733 72.94 32.04C72.94 31.3467 72.6867 30.8467 72.18 30.54C71.6733 30.22 70.9267 30.06 69.94 30.06H67.98V34.2ZM81.4936 36.24C80.8269 36.24 80.2003 36.1267 79.6136 35.9C79.0403 35.6733 78.5403 35.34 78.1136 34.9C77.6869 34.46 77.3536 33.92 77.1136 33.28C76.8736 32.64 76.7536 31.9133 76.7536 31.1C76.7536 30.2867 76.8869 29.56 77.1536 28.92C77.4203 28.28 77.7803 27.74 78.2336 27.3C78.6869 26.86 79.2069 26.5267 79.7936 26.3C80.3936 26.06 81.0203 25.94 81.6736 25.94C82.3136 25.94 82.8603 26.0467 83.3136 26.26C83.7803 26.4733 84.1936 26.7333 84.5536 27.04L83.4336 28.54C83.1669 28.3133 82.9003 28.14 82.6336 28.02C82.3803 27.8867 82.1003 27.82 81.7936 27.82C80.9936 27.82 80.3469 28.12 79.8536 28.72C79.3603 29.3067 79.1136 30.1 79.1136 31.1C79.1136 32.0867 79.3536 32.88 79.8336 33.48C80.3269 34.0667 80.9603 34.36 81.7336 34.36C82.1203 34.36 82.4803 34.28 82.8136 34.12C83.1603 33.9467 83.4736 33.7467 83.7536 33.52L84.6936 35.04C84.2269 35.44 83.7136 35.74 83.1536 35.94C82.6069 36.14 82.0536 36.24 81.4936 36.24ZM90.3436 36.24C89.6636 36.24 89.0303 36.1267 88.4436 35.9C87.8569 35.66 87.3436 35.32 86.9036 34.88C86.4636 34.44 86.1169 33.9067 85.8636 33.28C85.6236 32.64 85.5036 31.9133 85.5036 31.1C85.5036 30.3 85.6303 29.58 85.8836 28.94C86.1369 28.3 86.4703 27.76 86.8836 27.32C87.3103 26.88 87.7969 26.54 88.3436 26.3C88.8903 26.06 89.4503 25.94 90.0236 25.94C90.6903 25.94 91.2769 26.0533 91.7836 26.28C92.2903 26.5067 92.7103 26.8267 93.0436 27.24C93.3903 27.6533 93.6503 28.1467 93.8236 28.72C93.9969 29.2933 94.0836 29.92 94.0836 30.6C94.0836 30.8267 94.0703 31.04 94.0436 31.24C94.0303 31.44 94.0103 31.6 93.9836 31.72H87.7436C87.8503 32.6 88.1569 33.28 88.6636 33.76C89.1836 34.2267 89.8436 34.46 90.6436 34.46C91.0703 34.46 91.4636 34.4 91.8236 34.28C92.1969 34.1467 92.5636 33.9667 92.9236 33.74L93.7036 35.18C93.2369 35.4867 92.7169 35.74 92.1436 35.94C91.5703 36.14 90.9703 36.24 90.3436 36.24ZM87.7236 30.16H92.0836C92.0836 29.4 91.9169 28.8067 91.5836 28.38C91.2636 27.94 90.7636 27.72 90.0836 27.72C89.4969 27.72 88.9836 27.9267 88.5436 28.34C88.1036 28.7533 87.8303 29.36 87.7236 30.16ZM100.284 36V26.18H102.584V30H104.024L104.944 28.02C105.131 27.5933 105.324 27.2467 105.524 26.98C105.738 26.7133 105.958 26.5067 106.184 26.36C106.411 26.2 106.658 26.0933 106.924 26.04C107.191 25.9733 107.478 25.94 107.784 25.94C108.051 25.94 108.284 25.98 108.484 26.06L108.104 28.2C107.984 28.16 107.864 28.14 107.744 28.14C107.504 28.14 107.278 28.2133 107.064 28.36C106.851 28.4933 106.638 28.8067 106.424 29.3L105.744 30.82L109.084 36H106.544L104.064 31.84H102.584V36H100.284ZM111.081 40.04C110.814 40.04 110.581 40.02 110.381 39.98C110.181 39.9533 109.988 39.9067 109.801 39.84L110.221 38.04C110.314 38.0667 110.421 38.0933 110.541 38.12C110.674 38.16 110.801 38.18 110.921 38.18C111.441 38.18 111.854 38.02 112.161 37.7C112.481 37.3933 112.721 36.9933 112.881 36.5L113.061 35.88L109.201 26.18H111.541L113.241 31C113.388 31.4267 113.528 31.88 113.661 32.36C113.808 32.8267 113.954 33.2933 114.101 33.76H114.181C114.301 33.3067 114.421 32.8467 114.541 32.38C114.674 31.9 114.801 31.44 114.921 31L116.401 26.18H118.621L115.061 36.44C114.861 37 114.641 37.5 114.401 37.94C114.161 38.38 113.881 38.7533 113.561 39.06C113.254 39.38 112.894 39.62 112.481 39.78C112.081 39.9533 111.614 40.04 111.081 40.04ZM120.323 39.88V26.18H122.223L122.383 27.22H122.463C122.877 26.8733 123.337 26.5733 123.843 26.32C124.35 26.0667 124.877 25.94 125.423 25.94C126.037 25.94 126.577 26.06 127.043 26.3C127.523 26.5267 127.93 26.86 128.263 27.3C128.597 27.74 128.85 28.2667 129.023 28.88C129.197 29.4933 129.283 30.18 129.283 30.94C129.283 31.78 129.163 32.5333 128.923 33.2C128.697 33.8533 128.39 34.4067 128.003 34.86C127.617 35.3 127.17 35.64 126.663 35.88C126.157 36.12 125.63 36.24 125.083 36.24C124.657 36.24 124.23 36.1467 123.803 35.96C123.377 35.7733 122.963 35.5067 122.563 35.16L122.623 36.8V39.88H120.323ZM124.603 34.34C125.257 34.34 125.803 34.06 126.243 33.5C126.683 32.9267 126.903 32.08 126.903 30.96C126.903 29.9733 126.737 29.2067 126.403 28.66C126.07 28.1133 125.53 27.84 124.783 27.84C124.09 27.84 123.37 28.2067 122.623 28.94V33.52C122.983 33.8267 123.33 34.04 123.663 34.16C123.997 34.28 124.31 34.34 124.603 34.34ZM135.712 36.24C135.046 36.24 134.419 36.1267 133.832 35.9C133.259 35.6733 132.759 35.34 132.332 34.9C131.906 34.46 131.572 33.92 131.332 33.28C131.092 32.64 130.972 31.9133 130.972 31.1C130.972 30.2867 131.106 29.56 131.372 28.92C131.639 28.28 131.999 27.74 132.452 27.3C132.906 26.86 133.426 26.5267 134.012 26.3C134.612 26.06 135.239 25.94 135.892 25.94C136.532 25.94 137.079 26.0467 137.532 26.26C137.999 26.4733 138.412 26.7333 138.772 27.04L137.652 28.54C137.386 28.3133 137.119 28.14 136.852 28.02C136.599 27.8867 136.319 27.82 136.012 27.82C135.212 27.82 134.566 28.12 134.072 28.72C133.579 29.3067 133.332 30.1 133.332 31.1C133.332 32.0867 133.572 32.88 134.052 33.48C134.546 34.0667 135.179 34.36 135.952 34.36C136.339 34.36 136.699 34.28 137.032 34.12C137.379 33.9467 137.692 33.7467 137.972 33.52L138.912 35.04C138.446 35.44 137.932 35.74 137.372 35.94C136.826 36.14 136.272 36.24 135.712 36.24ZM140.851 36V26.18H143.151V29.54H144.191C144.777 29.54 145.317 29.6 145.811 29.72C146.317 29.84 146.751 30.0267 147.111 30.28C147.471 30.5333 147.751 30.8667 147.951 31.28C148.164 31.68 148.271 32.1667 148.271 32.74C148.271 33.3267 148.164 33.8267 147.951 34.24C147.751 34.6533 147.471 34.9933 147.111 35.26C146.751 35.5133 146.317 35.7 145.811 35.82C145.317 35.94 144.777 36 144.191 36H140.851ZM143.151 34.22H144.051C145.371 34.22 146.031 33.72 146.031 32.72C146.031 31.76 145.371 31.28 144.051 31.28H143.151V34.22ZM149.771 36V26.18H152.071V36H149.771Z" fill="#0018ED"/>
<rect x="1" y="1" width="184" height="55" rx="27.5" stroke="#0018ED" stroke-width="2"/>
</svg>
